<mxfile host="app.diagrams.net" modified="2023-03-16T14:51:41.100Z" agent="5.0 (Windows NT 10.0; Win64; x64) AppleWebKit/537.36 (KHTML, like Gecko) Chrome/111.0.0.0 Safari/537.36" etag="lsLnktKWuO8lDV7s7IQW" version="21.0.6" type="github">
  <diagram name="Page-1" id="xAzAatpw-6TuExf-TF-H">
    <mxGraphModel dx="1356" dy="830" grid="1" gridSize="10" guides="1" tooltips="1" connect="1" arrows="1" fold="1" page="1" pageScale="1" pageWidth="827" pageHeight="1169" math="0" shadow="0">
      <root>
        <mxCell id="0" />
        <mxCell id="1" parent="0" />
        <mxCell id="adnxh2NcjU3n2QmKFJgh-6" style="edgeStyle=orthogonalEdgeStyle;rounded=0;orthogonalLoop=1;jettySize=auto;html=1;entryX=0.5;entryY=0;entryDx=0;entryDy=0;" parent="1" source="adnxh2NcjU3n2QmKFJgh-1" target="adnxh2NcjU3n2QmKFJgh-2" edge="1">
          <mxGeometry relative="1" as="geometry" />
        </mxCell>
        <mxCell id="adnxh2NcjU3n2QmKFJgh-7" style="edgeStyle=orthogonalEdgeStyle;rounded=0;orthogonalLoop=1;jettySize=auto;html=1;entryX=0.5;entryY=0;entryDx=0;entryDy=0;" parent="1" source="adnxh2NcjU3n2QmKFJgh-1" target="adnxh2NcjU3n2QmKFJgh-3" edge="1">
          <mxGeometry relative="1" as="geometry">
            <Array as="points">
              <mxPoint x="380" y="290" />
              <mxPoint x="320" y="290" />
            </Array>
          </mxGeometry>
        </mxCell>
        <mxCell id="adnxh2NcjU3n2QmKFJgh-8" style="edgeStyle=orthogonalEdgeStyle;rounded=0;orthogonalLoop=1;jettySize=auto;html=1;" parent="1" source="adnxh2NcjU3n2QmKFJgh-1" target="adnxh2NcjU3n2QmKFJgh-4" edge="1">
          <mxGeometry relative="1" as="geometry">
            <Array as="points">
              <mxPoint x="450" y="290" />
              <mxPoint x="500" y="290" />
            </Array>
          </mxGeometry>
        </mxCell>
        <mxCell id="adnxh2NcjU3n2QmKFJgh-9" style="edgeStyle=orthogonalEdgeStyle;rounded=0;orthogonalLoop=1;jettySize=auto;html=1;entryX=0.5;entryY=0;entryDx=0;entryDy=0;" parent="1" source="adnxh2NcjU3n2QmKFJgh-1" target="adnxh2NcjU3n2QmKFJgh-5" edge="1">
          <mxGeometry relative="1" as="geometry" />
        </mxCell>
        <mxCell id="adnxh2NcjU3n2QmKFJgh-1" value="&lt;font style=&quot;font-size: 16px;&quot;&gt;&lt;b&gt;&lt;i&gt;Population Synthesis&lt;/i&gt;&lt;/b&gt;&lt;/font&gt;" style="rounded=0;whiteSpace=wrap;html=1;" parent="1" vertex="1">
          <mxGeometry x="354" y="200" width="120" height="60" as="geometry" />
        </mxCell>
        <mxCell id="adnxh2NcjU3n2QmKFJgh-18" style="edgeStyle=orthogonalEdgeStyle;rounded=0;orthogonalLoop=1;jettySize=auto;html=1;entryX=0;entryY=0.5;entryDx=0;entryDy=0;" parent="1" source="adnxh2NcjU3n2QmKFJgh-2" target="adnxh2NcjU3n2QmKFJgh-13" edge="1">
          <mxGeometry relative="1" as="geometry">
            <Array as="points">
              <mxPoint x="25" y="350" />
              <mxPoint x="25" y="480" />
            </Array>
          </mxGeometry>
        </mxCell>
        <mxCell id="adnxh2NcjU3n2QmKFJgh-19" style="edgeStyle=orthogonalEdgeStyle;rounded=0;orthogonalLoop=1;jettySize=auto;html=1;entryX=0;entryY=0.5;entryDx=0;entryDy=0;" parent="1" source="adnxh2NcjU3n2QmKFJgh-2" target="adnxh2NcjU3n2QmKFJgh-12" edge="1">
          <mxGeometry relative="1" as="geometry">
            <Array as="points">
              <mxPoint x="25" y="350" />
              <mxPoint x="25" y="625" />
            </Array>
          </mxGeometry>
        </mxCell>
        <mxCell id="bG-YiUiEjd_KO9g4mgQk-5" style="edgeStyle=orthogonalEdgeStyle;rounded=0;orthogonalLoop=1;jettySize=auto;html=1;entryX=0;entryY=0.5;entryDx=0;entryDy=0;" parent="1" source="adnxh2NcjU3n2QmKFJgh-2" target="bG-YiUiEjd_KO9g4mgQk-3" edge="1">
          <mxGeometry relative="1" as="geometry">
            <Array as="points">
              <mxPoint x="25" y="350" />
              <mxPoint x="25" y="760" />
            </Array>
          </mxGeometry>
        </mxCell>
        <mxCell id="bG-YiUiEjd_KO9g4mgQk-6" style="edgeStyle=orthogonalEdgeStyle;rounded=0;orthogonalLoop=1;jettySize=auto;html=1;entryX=0;entryY=0.5;entryDx=0;entryDy=0;" parent="1" source="adnxh2NcjU3n2QmKFJgh-2" target="bG-YiUiEjd_KO9g4mgQk-2" edge="1">
          <mxGeometry relative="1" as="geometry">
            <Array as="points">
              <mxPoint x="25" y="350" />
              <mxPoint x="25" y="900" />
            </Array>
          </mxGeometry>
        </mxCell>
        <mxCell id="NaC6e5voHo2U51HrKp6B-2" style="edgeStyle=orthogonalEdgeStyle;rounded=0;orthogonalLoop=1;jettySize=auto;html=1;entryX=0;entryY=0.5;entryDx=0;entryDy=0;" parent="1" source="adnxh2NcjU3n2QmKFJgh-2" target="NaC6e5voHo2U51HrKp6B-1" edge="1">
          <mxGeometry relative="1" as="geometry">
            <Array as="points">
              <mxPoint x="25" y="350" />
              <mxPoint x="25" y="1050" />
            </Array>
          </mxGeometry>
        </mxCell>
        <mxCell id="adnxh2NcjU3n2QmKFJgh-2" value="&lt;b&gt;&lt;font style=&quot;font-size: 16px;&quot;&gt;Limited and mixed data&lt;/font&gt;&lt;/b&gt;" style="rounded=0;whiteSpace=wrap;html=1;" parent="1" vertex="1">
          <mxGeometry x="80" y="320" width="120" height="60" as="geometry" />
        </mxCell>
        <mxCell id="adnxh2NcjU3n2QmKFJgh-23" style="edgeStyle=orthogonalEdgeStyle;rounded=0;orthogonalLoop=1;jettySize=auto;html=1;exitX=0;exitY=0.5;exitDx=0;exitDy=0;entryX=0;entryY=0.5;entryDx=0;entryDy=0;" parent="1" source="adnxh2NcjU3n2QmKFJgh-3" target="adnxh2NcjU3n2QmKFJgh-20" edge="1">
          <mxGeometry relative="1" as="geometry" />
        </mxCell>
        <mxCell id="adnxh2NcjU3n2QmKFJgh-25" style="edgeStyle=orthogonalEdgeStyle;rounded=0;orthogonalLoop=1;jettySize=auto;html=1;exitX=0;exitY=0.5;exitDx=0;exitDy=0;entryX=0;entryY=0.5;entryDx=0;entryDy=0;" parent="1" source="adnxh2NcjU3n2QmKFJgh-3" target="adnxh2NcjU3n2QmKFJgh-24" edge="1">
          <mxGeometry relative="1" as="geometry" />
        </mxCell>
        <mxCell id="adnxh2NcjU3n2QmKFJgh-3" value="&lt;b&gt;&lt;font style=&quot;font-size: 16px;&quot;&gt;Heterogeneity&lt;/font&gt;&lt;/b&gt;" style="rounded=0;whiteSpace=wrap;html=1;" parent="1" vertex="1">
          <mxGeometry x="260" y="320" width="120" height="60" as="geometry" />
        </mxCell>
        <mxCell id="bG-YiUiEjd_KO9g4mgQk-18" style="edgeStyle=orthogonalEdgeStyle;rounded=0;orthogonalLoop=1;jettySize=auto;html=1;exitX=0;exitY=0.5;exitDx=0;exitDy=0;entryX=0;entryY=0.5;entryDx=0;entryDy=0;" parent="1" source="adnxh2NcjU3n2QmKFJgh-4" target="bG-YiUiEjd_KO9g4mgQk-15" edge="1">
          <mxGeometry relative="1" as="geometry">
            <Array as="points">
              <mxPoint x="460" y="350" />
              <mxPoint x="460" y="470" />
            </Array>
          </mxGeometry>
        </mxCell>
        <mxCell id="adnxh2NcjU3n2QmKFJgh-4" value="&lt;b&gt;&lt;font style=&quot;font-size: 16px;&quot;&gt;Curse of dimensionality&lt;/font&gt;&lt;/b&gt;" style="rounded=0;whiteSpace=wrap;html=1;" parent="1" vertex="1">
          <mxGeometry x="474" y="320" width="120" height="60" as="geometry" />
        </mxCell>
        <mxCell id="bG-YiUiEjd_KO9g4mgQk-24" style="edgeStyle=orthogonalEdgeStyle;rounded=0;orthogonalLoop=1;jettySize=auto;html=1;entryX=0;entryY=0.5;entryDx=0;entryDy=0;" parent="1" source="adnxh2NcjU3n2QmKFJgh-5" target="adnxh2NcjU3n2QmKFJgh-31" edge="1">
          <mxGeometry relative="1" as="geometry">
            <Array as="points">
              <mxPoint x="660" y="350" />
              <mxPoint x="660" y="475" />
            </Array>
          </mxGeometry>
        </mxCell>
        <mxCell id="bG-YiUiEjd_KO9g4mgQk-25" style="edgeStyle=orthogonalEdgeStyle;rounded=0;orthogonalLoop=1;jettySize=auto;html=1;entryX=0;entryY=0.5;entryDx=0;entryDy=0;" parent="1" source="adnxh2NcjU3n2QmKFJgh-5" target="bG-YiUiEjd_KO9g4mgQk-1" edge="1">
          <mxGeometry relative="1" as="geometry">
            <Array as="points">
              <mxPoint x="660" y="350" />
              <mxPoint x="660" y="625" />
            </Array>
          </mxGeometry>
        </mxCell>
        <mxCell id="adnxh2NcjU3n2QmKFJgh-5" value="&lt;b&gt;&lt;font style=&quot;font-size: 16px;&quot;&gt;Adaptability&lt;/font&gt;&lt;/b&gt;" style="rounded=0;whiteSpace=wrap;html=1;" parent="1" vertex="1">
          <mxGeometry x="670" y="320" width="120" height="60" as="geometry" />
        </mxCell>
        <mxCell id="adnxh2NcjU3n2QmKFJgh-12" value="&lt;font style=&quot;font-size: 13px;&quot;&gt;Zero-cell issue&lt;/font&gt;" style="ellipse;whiteSpace=wrap;html=1;aspect=fixed;" parent="1" vertex="1">
          <mxGeometry x="45" y="585" width="80" height="80" as="geometry" />
        </mxCell>
        <mxCell id="adnxh2NcjU3n2QmKFJgh-13" value="&lt;font style=&quot;font-size: 13px;&quot;&gt;Integerization issue&lt;/font&gt;" style="ellipse;whiteSpace=wrap;html=1;aspect=fixed;" parent="1" vertex="1">
          <mxGeometry x="45" y="440" width="80" height="80" as="geometry" />
        </mxCell>
        <mxCell id="adnxh2NcjU3n2QmKFJgh-20" value="Multi level" style="ellipse;whiteSpace=wrap;html=1;aspect=fixed;" parent="1" vertex="1">
          <mxGeometry x="310" y="435" width="80" height="80" as="geometry" />
        </mxCell>
        <mxCell id="adnxh2NcjU3n2QmKFJgh-24" value="&lt;font style=&quot;font-size: 13px;&quot;&gt;Multi zone&lt;/font&gt;" style="ellipse;whiteSpace=wrap;html=1;aspect=fixed;" parent="1" vertex="1">
          <mxGeometry x="310" y="585" width="80" height="80" as="geometry" />
        </mxCell>
        <mxCell id="adnxh2NcjU3n2QmKFJgh-29" value="DL" style="text;html=1;strokeColor=none;fillColor=none;align=center;verticalAlign=middle;whiteSpace=wrap;rounded=0;" parent="1" vertex="1">
          <mxGeometry x="550" y="465" width="60" height="30" as="geometry" />
        </mxCell>
        <mxCell id="adnxh2NcjU3n2QmKFJgh-31" value="&lt;font style=&quot;font-size: 13px;&quot;&gt;Customizability&lt;/font&gt;" style="ellipse;whiteSpace=wrap;html=1;aspect=fixed;" parent="1" vertex="1">
          <mxGeometry x="710" y="435" width="80" height="80" as="geometry" />
        </mxCell>
        <mxCell id="bG-YiUiEjd_KO9g4mgQk-1" value="&lt;font style=&quot;font-size: 13px;&quot;&gt;Transferability&lt;/font&gt;" style="ellipse;whiteSpace=wrap;html=1;aspect=fixed;" parent="1" vertex="1">
          <mxGeometry x="710" y="585" width="80" height="80" as="geometry" />
        </mxCell>
        <mxCell id="bG-YiUiEjd_KO9g4mgQk-10" style="edgeStyle=orthogonalEdgeStyle;rounded=0;orthogonalLoop=1;jettySize=auto;html=1;entryX=0;entryY=0.5;entryDx=0;entryDy=0;" parent="1" source="bG-YiUiEjd_KO9g4mgQk-2" target="bG-YiUiEjd_KO9g4mgQk-8" edge="1">
          <mxGeometry relative="1" as="geometry" />
        </mxCell>
        <mxCell id="bG-YiUiEjd_KO9g4mgQk-11" style="edgeStyle=orthogonalEdgeStyle;rounded=0;orthogonalLoop=1;jettySize=auto;html=1;entryX=0;entryY=0.5;entryDx=0;entryDy=0;" parent="1" source="bG-YiUiEjd_KO9g4mgQk-2" target="bG-YiUiEjd_KO9g4mgQk-9" edge="1">
          <mxGeometry relative="1" as="geometry" />
        </mxCell>
        <mxCell id="bG-YiUiEjd_KO9g4mgQk-13" style="edgeStyle=orthogonalEdgeStyle;rounded=0;orthogonalLoop=1;jettySize=auto;html=1;entryX=0;entryY=0.5;entryDx=0;entryDy=0;" parent="1" source="bG-YiUiEjd_KO9g4mgQk-2" target="bG-YiUiEjd_KO9g4mgQk-12" edge="1">
          <mxGeometry relative="1" as="geometry">
            <Array as="points">
              <mxPoint x="145" y="900" />
              <mxPoint x="145" y="980" />
            </Array>
          </mxGeometry>
        </mxCell>
        <mxCell id="bG-YiUiEjd_KO9g4mgQk-2" value="&lt;font style=&quot;font-size: 13px;&quot;&gt;Data flexibility&lt;/font&gt;" style="ellipse;whiteSpace=wrap;html=1;aspect=fixed;" parent="1" vertex="1">
          <mxGeometry x="45" y="860" width="80" height="80" as="geometry" />
        </mxCell>
        <mxCell id="bG-YiUiEjd_KO9g4mgQk-3" value="&lt;font style=&quot;font-size: 13px;&quot;&gt;Mixed data&lt;/font&gt;" style="ellipse;whiteSpace=wrap;html=1;aspect=fixed;" parent="1" vertex="1">
          <mxGeometry x="45" y="720" width="80" height="80" as="geometry" />
        </mxCell>
        <mxCell id="bG-YiUiEjd_KO9g4mgQk-8" value="&lt;font style=&quot;font-size: 13px;&quot;&gt;Sample-based&lt;/font&gt;" style="rhombus;whiteSpace=wrap;html=1;" parent="1" vertex="1">
          <mxGeometry x="160" y="830" width="110" height="40" as="geometry" />
        </mxCell>
        <mxCell id="bG-YiUiEjd_KO9g4mgQk-9" value="&lt;font style=&quot;font-size: 13px;&quot;&gt;Sample-free&lt;/font&gt;" style="rhombus;whiteSpace=wrap;html=1;" parent="1" vertex="1">
          <mxGeometry x="160" y="900" width="110" height="40" as="geometry" />
        </mxCell>
        <mxCell id="bG-YiUiEjd_KO9g4mgQk-12" value="&lt;font style=&quot;font-size: 13px;&quot;&gt;Sample-only&lt;/font&gt;" style="rhombus;whiteSpace=wrap;html=1;" parent="1" vertex="1">
          <mxGeometry x="160" y="960" width="110" height="40" as="geometry" />
        </mxCell>
        <mxCell id="bG-YiUiEjd_KO9g4mgQk-15" value="&lt;font style=&quot;font-size: 13px;&quot;&gt;Limited time&lt;/font&gt;" style="ellipse;whiteSpace=wrap;html=1;aspect=fixed;" parent="1" vertex="1">
          <mxGeometry x="524" y="430" width="80" height="80" as="geometry" />
        </mxCell>
        <mxCell id="NaC6e5voHo2U51HrKp6B-1" value="&lt;font style=&quot;font-size: 13px;&quot;&gt;Combining data&lt;/font&gt;" style="ellipse;whiteSpace=wrap;html=1;aspect=fixed;" parent="1" vertex="1">
          <mxGeometry x="45" y="1010" width="80" height="80" as="geometry" />
        </mxCell>
      </root>
    </mxGraphModel>
  </diagram>
</mxfile>
